<svg width="60" height="16" viewBox="0 0 60 16" fill="none" xmlns="http://www.w3.org/2000/svg">
<path d="M6.096 12V7.84C6.096 7.568 6.07733 7.26667 6.04 6.936C6.00267 6.60533 5.91467 6.288 5.776 5.984C5.64267 5.67467 5.44 5.42133 5.168 5.224C4.90133 5.02667 4.53867 4.928 4.08 4.928C3.83467 4.928 3.592 4.968 3.352 5.048C3.112 5.128 2.89333 5.26667 2.696 5.464C2.504 5.656 2.34933 5.92267 2.232 6.264C2.11467 6.6 2.056 7.032 2.056 7.56L0.912 7.072C0.912 6.336 1.05333 5.66933 1.336 5.072C1.624 4.47467 2.04533 4 2.6 3.648C3.15467 3.29067 3.83733 3.112 4.648 3.112C5.288 3.112 5.816 3.21867 6.232 3.432C6.648 3.64533 6.97867 3.91733 7.224 4.248C7.46933 4.57867 7.65067 4.93067 7.768 5.304C7.88533 5.67733 7.96 6.032 7.992 6.368C8.02933 6.69867 8.048 6.968 8.048 7.176V12H6.096ZM0.104 12V0.48H1.824V6.544H2.056V12H0.104ZM13.7916 12.24C12.9276 12.24 12.173 12.0453 11.5276 11.656C10.8823 11.2667 10.381 10.7307 10.0236 10.048C9.67163 9.36 9.49563 8.57067 9.49563 7.68C9.49563 6.77333 9.67696 5.97867 10.0396 5.296C10.4023 4.61333 10.9063 4.08 11.5516 3.696C12.197 3.312 12.9436 3.12 13.7916 3.12C14.661 3.12 15.4183 3.31467 16.0636 3.704C16.709 4.09333 17.2103 4.632 17.5676 5.32C17.925 6.00267 18.1036 6.78933 18.1036 7.68C18.1036 8.576 17.9223 9.368 17.5596 10.056C17.2023 10.7387 16.701 11.2747 16.0556 11.664C15.4103 12.048 14.6556 12.24 13.7916 12.24ZM13.7916 10.432C14.5596 10.432 15.1303 10.176 15.5036 9.664C15.877 9.152 16.0636 8.49067 16.0636 7.68C16.0636 6.84267 15.8743 6.176 15.4956 5.68C15.117 5.17867 14.549 4.928 13.7916 4.928C13.2743 4.928 12.8476 5.04533 12.5116 5.28C12.181 5.50933 11.9356 5.832 11.7756 6.248C11.6156 6.65867 11.5356 7.136 11.5356 7.68C11.5356 8.51733 11.725 9.18667 12.1036 9.688C12.4876 10.184 13.0503 10.432 13.7916 10.432ZM30.0823 12V6.752C30.0823 6.16 29.9356 5.69867 29.6423 5.368C29.3489 5.032 28.9516 4.864 28.4503 4.864C28.1409 4.864 27.8636 4.936 27.6183 5.08C27.3729 5.21867 27.1783 5.42667 27.0343 5.704C26.8903 5.976 26.8183 6.30133 26.8183 6.68L25.9623 6.176C25.9569 5.57867 26.0903 5.05333 26.3623 4.6C26.6396 4.14133 27.0129 3.784 27.4823 3.528C27.9516 3.272 28.4743 3.144 29.0503 3.144C30.0049 3.144 30.7356 3.432 31.2423 4.008C31.7543 4.57867 32.0103 5.33067 32.0103 6.264V12H30.0823ZM19.6903 12V3.36H21.3943V6.04H21.6343V12H19.6903ZM24.8983 12V6.776C24.8983 6.17333 24.7516 5.704 24.4583 5.368C24.1649 5.032 23.7649 4.864 23.2583 4.864C22.7676 4.864 22.3729 5.032 22.0743 5.368C21.7809 5.704 21.6343 6.14133 21.6343 6.68L20.7703 6.104C20.7703 5.544 20.9089 5.04 21.1863 4.592C21.4636 4.144 21.8369 3.792 22.3063 3.536C22.7809 3.27467 23.3116 3.144 23.8983 3.144C24.5436 3.144 25.0823 3.28267 25.5143 3.56C25.9516 3.832 26.2769 4.20533 26.4903 4.68C26.7089 5.14933 26.8183 5.68 26.8183 6.272V12H24.8983ZM37.7243 12.24C36.8496 12.24 36.0816 12.0507 35.4203 11.672C34.7589 11.2933 34.2416 10.768 33.8683 10.096C33.5003 9.424 33.3163 8.65067 33.3163 7.776C33.3163 6.832 33.4976 6.01333 33.8603 5.32C34.2229 4.62133 34.7269 4.08 35.3723 3.696C36.0176 3.312 36.7643 3.12 37.6123 3.12C38.5083 3.12 39.2683 3.33067 39.8923 3.752C40.5216 4.168 40.9883 4.75733 41.2923 5.52C41.5963 6.28267 41.7109 7.18133 41.6363 8.216H39.7243V7.512C39.7189 6.57333 39.5536 5.888 39.2283 5.456C38.9029 5.024 38.3909 4.808 37.6923 4.808C36.9029 4.808 36.3163 5.05333 35.9323 5.544C35.5483 6.02933 35.3563 6.74133 35.3563 7.68C35.3563 8.55467 35.5483 9.232 35.9323 9.712C36.3163 10.192 36.8763 10.432 37.6123 10.432C38.0869 10.432 38.4949 10.328 38.8363 10.12C39.1829 9.90667 39.4496 9.6 39.6363 9.2L41.5403 9.776C41.2096 10.5547 40.6976 11.16 40.0043 11.592C39.3163 12.024 38.5563 12.24 37.7243 12.24ZM34.7483 8.216V6.76H40.6923V8.216H34.7483ZM48.3253 12C47.7546 12.1067 47.1946 12.152 46.6453 12.136C46.1013 12.1253 45.6133 12.0267 45.1813 11.84C44.7493 11.648 44.4213 11.3467 44.1973 10.936C43.9999 10.5627 43.8959 10.1813 43.8853 9.792C43.8746 9.40267 43.8693 8.96267 43.8693 8.472V0.959999H45.7893V8.36C45.7893 8.70667 45.7919 9.01067 45.7973 9.272C45.8079 9.53333 45.8639 9.74667 45.9653 9.912C46.1573 10.232 46.4639 10.4107 46.8853 10.448C47.3066 10.4853 47.7866 10.464 48.3253 10.384V12ZM42.3013 4.872V3.36H48.3253V4.872H42.3013ZM50.9248 15.84L52.5888 11.272L52.6208 12.616L48.8528 3.36H50.8608L53.5328 10.208H53.0208L55.6208 3.36H57.5488L52.7328 15.84H50.9248ZM57.6206 12V10.024H59.5966V12H57.6206Z" fill="#131417"/>
</svg>
